# xmcd CD database file
# Copyright (C) 1993-1996 Ti Kan
#
# Track frame offsets:
#	150
#	24108
#	37390
#	56203
#	72303
#	86753
#	99365
#	115153
#	134003
#	145633
#	166450
#	181240
#	197428
#	214630
#	230723
#	242838
#	257048
#	279888
#	300280
#
# Disc length: 4340 seconds
#
# Revision: 1
# Processed by: cddbd v1.4b41PL1 Copyright (c) Steve Scherf et al.
# Submitted via: xmcd 2.0
#
DISCID=0c10f213
DTITLE=Various Artist - Bo-Town Does Mo-Town
DYEAR=1900
DGENRE=
TTITLE0=I Can't Stand The Rain - Scott Gilman
TTITLE1=Same Old Song - The Zone
TTITLE2=Low Rider - Joe Harvard's 500 TV
TTITLE3=Think  - Lady Luck
TTITLE4=I (Who Have Nothing) - The Beachmasters
TTITLE5=Devil With A Blue Dress - What's The Big Idea
TTITLE6=Reflections - The Band That Time Forgot
TTITLE7=Mustang Sally - George Leh and Rockin' Shoes
TTITLE8=I Can't Get Next To You - Stone Soup
TTITLE9=Ain't Too Proud To Beg - Boston Baked Beans
TTITLE10=Get Ready - Condo Pygmies
TTITLE11=I'm Trying - Motor City Rhythm Kings
TTITLE12=I Got The Will - P.J. and The Soul Shakers
TTITLE13=Wonderful One - Maxilla
TTITLE14=In The Midnight Hour - Childhood
TTITLE15=My World Is Empty - Happy Campers
TTITLE16=Take Me To The River - Michaels Messina
TTITLE17=Let's Stay Together - Taylor Made
TTITLE18=Cold Sweat - The J.P. Horns
EXTD=Fast Track Records\n264 Tosca Dr.\nStoughton, MA 02072\n(617) 821-0
EXTD=507\n\n#FT9003  Copyright 1990
EXTT0=
EXTT1=
EXTT2=
EXTT3=
EXTT4=
EXTT5=
EXTT6=
EXTT7=
EXTT8=
EXTT9=
EXTT10=
EXTT11=
EXTT12=
EXTT13=
EXTT14=
EXTT15=
EXTT16=
EXTT17=
EXTT18=
PLAYORDER=
